FILE "Idol Mahjong Final Romance 2 (1995)(SNK - Video System)(JP).img" BINARY
  TRACK 01 MODE1/2352
    INDEX 01 00:00:00
  TRACK 02 AUDIO
    PREGAP 00:02:00
    INDEX 00 00:49:74
    INDEX 01 00:50:74
  TRACK 03 AUDIO
    INDEX 00 01:02:20
    INDEX 01 01:04:20
  TRACK 04 AUDIO
    INDEX 00 01:34:18
    INDEX 01 01:36:18
  TRACK 05 AUDIO
    INDEX 00 02:21:65
    INDEX 01 02:23:65
  TRACK 06 AUDIO
    INDEX 00 03:15:57
    INDEX 01 03:17:57
  TRACK 07 AUDIO
    INDEX 00 04:03:62
    INDEX 01 04:05:62
  TRACK 08 AUDIO
    INDEX 00 06:12:58
    INDEX 01 06:14:58
  TRACK 09 AUDIO
    INDEX 00 06:51:67
    INDEX 01 06:53:67
  TRACK 10 AUDIO
    INDEX 00 08:14:60
    INDEX 01 08:16:60
  TRACK 11 AUDIO
    INDEX 00 09:01:60
    INDEX 01 09:03:60
  TRACK 12 AUDIO
    INDEX 00 11:20:46
    INDEX 01 11:22:46
  TRACK 13 AUDIO
    INDEX 00 12:13:48
    INDEX 01 12:15:48
  TRACK 14 AUDIO
    INDEX 00 14:31:56
    INDEX 01 14:33:56
  TRACK 15 AUDIO
    INDEX 00 15:46:39
    INDEX 01 15:48:39
  TRACK 16 AUDIO
    INDEX 00 17:01:22
    INDEX 01 17:03:22
  TRACK 17 AUDIO
    INDEX 00 17:50:05
    INDEX 01 17:52:05
  TRACK 18 AUDIO
    INDEX 00 20:11:27
    INDEX 01 20:13:27
  TRACK 19 AUDIO
    INDEX 00 20:55:41
    INDEX 01 20:57:41
  TRACK 20 AUDIO
    INDEX 00 22:16:38
    INDEX 01 22:18:38
  TRACK 21 AUDIO
    INDEX 00 23:04:07
    INDEX 01 23:06:07
  TRACK 22 AUDIO
    INDEX 00 25:39:68
    INDEX 01 25:41:68
  TRACK 23 AUDIO
    INDEX 00 26:26:56
    INDEX 01 26:28:56
  TRACK 24 AUDIO
    INDEX 00 27:49:25
    INDEX 01 27:51:25
  TRACK 25 AUDIO
    INDEX 00 29:11:61
    INDEX 01 29:13:61
  TRACK 26 AUDIO
    INDEX 00 30:26:74
    INDEX 01 30:28:74
  TRACK 27 AUDIO
    INDEX 00 31:41:03
    INDEX 01 31:43:03
  TRACK 28 AUDIO
    INDEX 00 32:23:63
    INDEX 01 32:25:63
  TRACK 29 AUDIO
    INDEX 00 33:07:72
    INDEX 01 33:09:72
  TRACK 30 AUDIO
    INDEX 00 33:26:05
    INDEX 01 33:28:05
  TRACK 31 AUDIO
    INDEX 00 33:45:05
    INDEX 01 33:47:05
  TRACK 32 AUDIO
    INDEX 00 34:01:24
    INDEX 01 34:03:24
  TRACK 33 AUDIO
    INDEX 00 34:16:36
    INDEX 01 34:18:36
  TRACK 34 AUDIO
    INDEX 00 34:31:32
    INDEX 01 34:33:32
  TRACK 35 AUDIO
    INDEX 00 34:47:30
    INDEX 01 34:49:30
  TRACK 36 AUDIO
    INDEX 00 35:02:55
    INDEX 01 35:04:55
  TRACK 37 AUDIO
    INDEX 00 35:20:51
    INDEX 01 35:22:51
  TRACK 38 AUDIO
    INDEX 00 35:37:45
    INDEX 01 35:39:45
  TRACK 39 AUDIO
    INDEX 00 35:53:26
    INDEX 01 35:55:26
  TRACK 40 AUDIO
    INDEX 00 36:10:30
    INDEX 01 36:12:30
  TRACK 41 AUDIO
    INDEX 00 36:27:09
    INDEX 01 36:29:09
  TRACK 42 AUDIO
    INDEX 00 36:41:36
    INDEX 01 36:43:36
  TRACK 43 AUDIO
    INDEX 00 36:57:67
    INDEX 01 36:59:67
  TRACK 44 AUDIO
    INDEX 00 37:14:67
    INDEX 01 37:16:67
  TRACK 45 AUDIO
    INDEX 00 37:31:37
    INDEX 01 37:33:37
  TRACK 46 AUDIO
    INDEX 00 37:47:71
    INDEX 01 37:49:71
  TRACK 47 AUDIO
    INDEX 00 38:04:23
    INDEX 01 38:06:23
  TRACK 48 AUDIO
    INDEX 00 38:18:18
    INDEX 01 38:20:18
  TRACK 49 AUDIO
    INDEX 00 38:36:25
    INDEX 01 38:38:25
  TRACK 50 AUDIO
    INDEX 00 38:54:20
    INDEX 01 38:56:20
  TRACK 51 AUDIO
    INDEX 00 39:09:36
    INDEX 01 39:11:36
  TRACK 52 AUDIO
    INDEX 00 39:25:73
    INDEX 01 39:27:73
  TRACK 53 AUDIO
    INDEX 00 39:41:16
    INDEX 01 39:43:16
  TRACK 54 AUDIO
    INDEX 00 39:55:54
    INDEX 01 39:57:54
  TRACK 55 AUDIO
    INDEX 00 40:14:49
    INDEX 01 40:16:49
  TRACK 56 AUDIO
    INDEX 00 40:31:07
    INDEX 01 40:33:07
  TRACK 57 AUDIO
    INDEX 00 40:47:26
    INDEX 01 40:49:26
  TRACK 58 AUDIO
    INDEX 00 41:03:37
    INDEX 01 41:05:37
  TRACK 59 AUDIO
    INDEX 00 41:17:43
    INDEX 01 41:19:43
  TRACK 60 AUDIO
    INDEX 00 41:32:00
    INDEX 01 41:34:00
  TRACK 61 AUDIO
    INDEX 00 41:47:17
    INDEX 01 41:49:17
  TRACK 62 AUDIO
    INDEX 00 42:02:15
    INDEX 01 42:04:15
  TRACK 63 AUDIO
    INDEX 00 42:19:61
    INDEX 01 42:21:61
  TRACK 64 AUDIO
    INDEX 00 42:38:01
    INDEX 01 42:40:01
  TRACK 65 AUDIO
    INDEX 00 42:53:07
    INDEX 01 42:55:07
  TRACK 66 AUDIO
    INDEX 00 43:07:15
    INDEX 01 43:09:15
  TRACK 67 AUDIO
    INDEX 00 43:23:56
    INDEX 01 43:25:56
  TRACK 68 AUDIO
    INDEX 00 43:38:50
    INDEX 01 43:40:50
  TRACK 69 AUDIO
    INDEX 00 43:52:12
    INDEX 01 43:54:12
  TRACK 70 AUDIO
    INDEX 00 44:07:17
    INDEX 01 44:09:17
  TRACK 71 AUDIO
    INDEX 00 44:22:53
    INDEX 01 44:24:53
  TRACK 72 AUDIO
    INDEX 00 44:38:12
    INDEX 01 44:40:12
  TRACK 73 AUDIO
    INDEX 00 44:55:56
    INDEX 01 44:57:56
  TRACK 74 AUDIO
    INDEX 00 45:13:50
    INDEX 01 45:15:50
  TRACK 75 AUDIO
    INDEX 00 45:29:70
    INDEX 01 45:31:70
  TRACK 76 AUDIO
    INDEX 00 45:45:72
    INDEX 01 45:47:72
  TRACK 77 AUDIO
    INDEX 00 46:03:32
    INDEX 01 46:05:32
